<svg width="87" height="87" viewBox="0 0 87 87" fill="none" xmlns="http://www.w3.org/2000/svg">
<g filter="url(#filter0_d_473_2108)">
<path d="M68.875 39.875C68.875 59.5772 47.0911 70.7775 43.8907 72.3167C43.634 72.4401 43.3661 72.4401 43.1093 72.3167C39.9089 70.7775 18.125 59.5772 18.125 39.875C18.125 25.8608 29.4858 14.5 43.5 14.5C57.5142 14.5 68.875 25.8608 68.875 39.875Z" fill="#6D56FF"/>
<path d="M43.8907 72.3167L43.4572 71.4155L43.8907 72.3167ZM43.1093 72.3167L42.6759 73.2179L43.1093 72.3167ZM67.875 39.875C67.875 49.3336 62.6475 56.8133 56.9007 62.1758C51.16 67.5328 45.0156 70.666 43.4572 71.4155L44.3241 73.2179C45.9662 72.4281 52.3139 69.1916 58.2652 63.6381C64.2106 58.0902 69.875 50.1186 69.875 39.875H67.875ZM43.5428 71.4155C41.9844 70.666 35.84 67.5328 30.0993 62.1758C24.3525 56.8133 19.125 49.3336 19.125 39.875H17.125C17.125 50.1186 22.7894 58.0902 28.7348 63.6381C34.6861 69.1916 41.0338 72.4281 42.6759 73.2179L43.5428 71.4155ZM19.125 39.875C19.125 26.4131 30.0381 15.5 43.5 15.5V13.5C28.9335 13.5 17.125 25.3085 17.125 39.875H19.125ZM43.5 15.5C56.9619 15.5 67.875 26.4131 67.875 39.875H69.875C69.875 25.3085 58.0665 13.5 43.5 13.5V15.5ZM43.4572 71.4155C43.4545 71.4168 43.4576 71.415 43.4661 71.413C43.4749 71.4109 43.4865 71.4093 43.5 71.4093C43.5135 71.4093 43.5251 71.4109 43.5339 71.413C43.5424 71.415 43.5455 71.4168 43.5428 71.4155L42.6759 73.2179C43.2066 73.4731 43.7934 73.4731 44.3241 73.2179L43.4572 71.4155Z" fill="white"/>
</g>
<defs>
<filter id="filter0_d_473_2108" x="13.125" y="9.5" width="60.75" height="67.9093" filterUnits="userSpaceOnUse" color-interpolation-filters="sRGB">
<feFlood flood-opacity="0" result="BackgroundImageFix"/>
<feColorMatrix in="SourceAlpha" type="matrix" values="0 0 0 0 0 0 0 0 0 0 0 0 0 0 0 0 0 0 127 0" result="hardAlpha"/>
<feOffset/>
<feGaussianBlur stdDeviation="2"/>
<feComposite in2="hardAlpha" operator="out"/>
<feColorMatrix type="matrix" values="0 0 0 0 0 0 0 0 0 0 0 0 0 0 0 0 0 0 0.25 0"/>
<feBlend mode="normal" in2="BackgroundImageFix" result="effect1_dropShadow_473_2108"/>
<feBlend mode="normal" in="SourceGraphic" in2="effect1_dropShadow_473_2108" result="shape"/>
</filter>
</defs>
</svg>
