<svg width="63" height="69" viewBox="0 0 63 69" fill="none" xmlns="http://www.w3.org/2000/svg">
<g filter="url(#filter0_d_1114_431)">
<path d="M56.875 30.875C56.875 50.5772 35.0911 61.7775 31.8907 63.3167C31.634 63.4401 31.3661 63.4401 31.1093 63.3167C27.9089 61.7775 6.125 50.5772 6.125 30.875C6.125 16.8608 17.4858 5.5 31.5 5.5C45.5142 5.5 56.875 16.8608 56.875 30.875Z" fill="#6D56FF"/>
<path d="M31.8907 63.3167L31.2405 61.9649L31.8907 63.3167ZM31.1093 63.3167L31.7595 61.9649L31.1093 63.3167ZM55.375 30.875C55.375 40.1374 50.2567 47.494 44.5596 52.8103C38.8715 58.1181 32.7779 61.2255 31.2405 61.9649L32.5408 64.6685C34.2038 63.8686 40.6024 60.6063 46.6064 55.0036C52.6013 49.4094 58.375 41.3148 58.375 30.875H55.375ZM31.7595 61.9649C30.2221 61.2255 24.1285 58.1181 18.4404 52.8103C12.7433 47.494 7.625 40.1374 7.625 30.875H4.625C4.625 41.3148 10.3987 49.4094 16.3936 55.0036C22.3976 60.6063 28.7962 63.8687 30.4592 64.6685L31.7595 61.9649ZM7.625 30.875C7.625 17.6892 18.3142 7 31.5 7V4C16.6573 4 4.625 16.0323 4.625 30.875H7.625ZM31.5 7C44.6858 7 55.375 17.6892 55.375 30.875H58.375C58.375 16.0323 46.3427 4 31.5 4V7ZM31.2405 61.9649C31.2996 61.9365 31.3896 61.9093 31.5 61.9093C31.6104 61.9093 31.7004 61.9365 31.7595 61.9649L30.4592 64.6685C31.1268 64.9895 31.8732 64.9895 32.5408 64.6685L31.2405 61.9649Z" fill="white"/>
</g>
<defs>
<filter id="filter0_d_1114_431" x="0.625" y="0" width="61.75" height="68.9092" filterUnits="userSpaceOnUse" color-interpolation-filters="sRGB">
<feFlood flood-opacity="0" result="BackgroundImageFix"/>
<feColorMatrix in="SourceAlpha" type="matrix" values="0 0 0 0 0 0 0 0 0 0 0 0 0 0 0 0 0 0 127 0" result="hardAlpha"/>
<feOffset/>
<feGaussianBlur stdDeviation="2"/>
<feComposite in2="hardAlpha" operator="out"/>
<feColorMatrix type="matrix" values="0 0 0 0 0 0 0 0 0 0 0 0 0 0 0 0 0 0 0.25 0"/>
<feBlend mode="normal" in2="BackgroundImageFix" result="effect1_dropShadow_1114_431"/>
<feBlend mode="normal" in="SourceGraphic" in2="effect1_dropShadow_1114_431" result="shape"/>
</filter>
</defs>
</svg>
