<svg width="47" height="53" viewBox="0 0 47 53" fill="none" xmlns="http://www.w3.org/2000/svg">
<g filter="url(#filter0_d_1059_1444)">
<path fill-rule="evenodd" clip-rule="evenodd" d="M23.8972 47.3119C26.5741 46.0058 41.875 37.9263 41.875 23.875C41.875 13.7268 33.6482 5.5 23.5 5.5C13.3518 5.5 5.125 13.7268 5.125 23.875C5.125 37.9263 20.4259 46.0058 23.1028 47.3119C23.3588 47.4368 23.6412 47.4368 23.8972 47.3119ZM23.5 31.75C27.8492 31.75 31.375 28.2242 31.375 23.875C31.375 19.5258 27.8492 16 23.5 16C19.1508 16 15.625 19.5258 15.625 23.875C15.625 28.2242 19.1508 31.75 23.5 31.75Z" fill="#6D56FF"/>
<path d="M23.8972 47.3119L23.4587 46.4131L23.4587 46.4131L23.8972 47.3119ZM23.1028 47.3119L23.5413 46.4131L23.5413 46.4131L23.1028 47.3119ZM40.875 23.875C40.875 30.514 37.2621 35.8021 33.2023 39.6468C29.1475 43.487 24.7547 45.7808 23.4587 46.4131L24.3357 48.2106C25.7166 47.5369 30.3128 45.1379 34.5776 41.099C38.8375 37.0646 42.875 31.2873 42.875 23.875H40.875ZM23.5 6.5C33.0959 6.5 40.875 14.2791 40.875 23.875H42.875C42.875 13.1745 34.2005 4.5 23.5 4.5V6.5ZM6.125 23.875C6.125 14.2791 13.9041 6.5 23.5 6.5V4.5C12.7995 4.5 4.125 13.1745 4.125 23.875H6.125ZM23.5413 46.4131C22.2453 45.7808 17.8525 43.487 13.7977 39.6468C9.73793 35.8021 6.125 30.514 6.125 23.875H4.125C4.125 31.2873 8.16251 37.0646 12.4224 41.099C16.6872 45.1379 21.2834 47.5369 22.6643 48.2106L23.5413 46.4131ZM23.4587 46.4131C23.4627 46.4112 23.4776 46.4055 23.5 46.4055C23.5224 46.4055 23.5373 46.4112 23.5413 46.4131L22.6643 48.2106C23.197 48.4705 23.803 48.4705 24.3357 48.2106L23.4587 46.4131ZM30.375 23.875C30.375 27.672 27.297 30.75 23.5 30.75V32.75C28.4015 32.75 32.375 28.7765 32.375 23.875H30.375ZM23.5 17C27.297 17 30.375 20.078 30.375 23.875H32.375C32.375 18.9735 28.4015 15 23.5 15V17ZM16.625 23.875C16.625 20.078 19.703 17 23.5 17V15C18.5985 15 14.625 18.9735 14.625 23.875H16.625ZM23.5 30.75C19.703 30.75 16.625 27.672 16.625 23.875H14.625C14.625 28.7765 18.5985 32.75 23.5 32.75V30.75Z" fill="white"/>
</g>
<defs>
<filter id="filter0_d_1059_1444" x="0.125" y="0.5" width="46.75" height="51.9055" filterUnits="userSpaceOnUse" color-interpolation-filters="sRGB">
<feFlood flood-opacity="0" result="BackgroundImageFix"/>
<feColorMatrix in="SourceAlpha" type="matrix" values="0 0 0 0 0 0 0 0 0 0 0 0 0 0 0 0 0 0 127 0" result="hardAlpha"/>
<feOffset/>
<feGaussianBlur stdDeviation="2"/>
<feComposite in2="hardAlpha" operator="out"/>
<feColorMatrix type="matrix" values="0 0 0 0 0 0 0 0 0 0 0 0 0 0 0 0 0 0 0.25 0"/>
<feBlend mode="normal" in2="BackgroundImageFix" result="effect1_dropShadow_1059_1444"/>
<feBlend mode="normal" in="SourceGraphic" in2="effect1_dropShadow_1059_1444" result="shape"/>
</filter>
</defs>
</svg>
