<svg width="52" height="58" viewBox="0 0 52 58" fill="none" xmlns="http://www.w3.org/2000/svg">
<g filter="url(#filter0_d_1059_1302)">
<path d="M47 26C47 42.1704 29.269 51.4206 26.3922 52.815C26.1359 52.9393 25.8641 52.9393 25.6078 52.815C22.731 51.4206 5 42.1704 5 26C5 14.402 14.402 5 26 5C37.598 5 47 14.402 47 26Z" fill="#6D56FF"/>
<path d="M26.3922 52.815L26.8284 53.7149L26.3922 52.815ZM25.6078 52.815L25.1716 53.7149L25.6078 52.815ZM46 26C46 33.6959 41.7823 39.8058 37.0897 44.2201C32.4025 48.6294 27.3522 51.2384 25.956 51.9152L26.8284 53.7149C28.309 52.9972 33.5626 50.2839 38.4601 45.6769C43.3522 41.0749 48 34.4745 48 26H46ZM26.044 51.9152C24.6478 51.2384 19.5975 48.6294 14.9103 44.2201C10.2177 39.8058 6 33.6959 6 26H4C4 34.4745 8.64783 41.0749 13.5399 45.6769C18.4374 50.2839 23.691 52.9972 25.1716 53.7149L26.044 51.9152ZM6 26C6 14.9543 14.9543 6 26 6V4C13.8497 4 4 13.8497 4 26H6ZM26 6C37.0457 6 46 14.9543 46 26H48C48 13.8497 38.1503 4 26 4V6ZM25.956 51.9152C25.955 51.9157 25.9714 51.9082 26 51.9082C26.0286 51.9082 26.045 51.9157 26.044 51.9152L25.1716 53.7149C25.7034 53.9726 26.2966 53.9726 26.8284 53.7149L25.956 51.9152Z" fill="white"/>
</g>
<defs>
<filter id="filter0_d_1059_1302" x="0" y="0" width="52" height="57.9082" filterUnits="userSpaceOnUse" color-interpolation-filters="sRGB">
<feFlood flood-opacity="0" result="BackgroundImageFix"/>
<feColorMatrix in="SourceAlpha" type="matrix" values="0 0 0 0 0 0 0 0 0 0 0 0 0 0 0 0 0 0 127 0" result="hardAlpha"/>
<feOffset/>
<feGaussianBlur stdDeviation="2"/>
<feComposite in2="hardAlpha" operator="out"/>
<feColorMatrix type="matrix" values="0 0 0 0 0 0 0 0 0 0 0 0 0 0 0 0 0 0 0.25 0"/>
<feBlend mode="normal" in2="BackgroundImageFix" result="effect1_dropShadow_1059_1302"/>
<feBlend mode="normal" in="SourceGraphic" in2="effect1_dropShadow_1059_1302" result="shape"/>
</filter>
</defs>
</svg>
