<svg width="63" height="71" viewBox="0 0 63 71" fill="none" xmlns="http://www.w3.org/2000/svg">
<g filter="url(#filter0_d_1114_1634)">
<path fill-rule="evenodd" clip-rule="evenodd" d="M31.8907 64.3167C35.0911 62.7775 56.875 51.5772 56.875 31.875C56.875 17.8608 45.5142 6.5 31.5 6.5C17.4858 6.5 6.125 17.8608 6.125 31.875C6.125 51.5772 27.9089 62.7775 31.1093 64.3167C31.3661 64.4401 31.634 64.4401 31.8907 64.3167ZM31.5 42.75C37.5061 42.75 42.375 37.8811 42.375 31.875C42.375 25.8689 37.5061 21 31.5 21C25.4939 21 20.625 25.8689 20.625 31.875C20.625 37.8811 25.4939 42.75 31.5 42.75Z" fill="#6D56FF"/>
<path d="M31.8907 64.3167L31.0238 62.5143L31.0238 62.5143L31.8907 64.3167ZM31.1093 64.3167L30.2425 66.1191L30.2425 66.1191L31.1093 64.3167ZM54.875 31.875C54.875 40.9411 49.8659 48.1748 44.2185 53.4447C38.5831 58.7034 32.5403 61.785 31.0238 62.5143L32.7575 66.1191C34.4415 65.3092 40.8908 62.021 46.9475 56.3692C52.9921 50.7286 58.875 42.5111 58.875 31.875H54.875ZM31.5 8.5C44.4097 8.5 54.875 18.9653 54.875 31.875H58.875C58.875 16.7562 46.6188 4.5 31.5 4.5V8.5ZM8.125 31.875C8.125 18.9653 18.5903 8.5 31.5 8.5V4.5C16.3812 4.5 4.125 16.7562 4.125 31.875H8.125ZM31.9762 62.5143C30.4598 61.785 24.4169 58.7034 18.7815 53.4447C13.1341 48.1748 8.125 40.9411 8.125 31.875H4.125C4.125 42.5111 10.0079 50.7286 16.0525 56.3692C22.1092 62.021 28.5585 65.3092 30.2425 66.1191L31.9762 62.5143ZM31.0238 62.5143C31.1454 62.4558 31.309 62.4093 31.5 62.4093C31.6909 62.4093 31.8546 62.4558 31.9762 62.5143L30.2425 66.1191C31.0471 66.506 31.9529 66.506 32.7575 66.119L31.0238 62.5143ZM40.375 31.875C40.375 36.7765 36.4015 40.75 31.5 40.75V44.75C38.6107 44.75 44.375 38.9857 44.375 31.875H40.375ZM31.5 23C36.4015 23 40.375 26.9735 40.375 31.875H44.375C44.375 24.7643 38.6107 19 31.5 19V23ZM22.625 31.875C22.625 26.9735 26.5985 23 31.5 23V19C24.3893 19 18.625 24.7643 18.625 31.875H22.625ZM31.5 40.75C26.5985 40.75 22.625 36.7765 22.625 31.875H18.625C18.625 38.9857 24.3893 44.75 31.5 44.75V40.75Z" fill="white"/>
</g>
<defs>
<filter id="filter0_d_1114_1634" x="0.125" y="0.5" width="62.75" height="69.9092" filterUnits="userSpaceOnUse" color-interpolation-filters="sRGB">
<feFlood flood-opacity="0" result="BackgroundImageFix"/>
<feColorMatrix in="SourceAlpha" type="matrix" values="0 0 0 0 0 0 0 0 0 0 0 0 0 0 0 0 0 0 127 0" result="hardAlpha"/>
<feOffset/>
<feGaussianBlur stdDeviation="2"/>
<feComposite in2="hardAlpha" operator="out"/>
<feColorMatrix type="matrix" values="0 0 0 0 0 0 0 0 0 0 0 0 0 0 0 0 0 0 0.25 0"/>
<feBlend mode="normal" in2="BackgroundImageFix" result="effect1_dropShadow_1114_1634"/>
<feBlend mode="normal" in="SourceGraphic" in2="effect1_dropShadow_1114_1634" result="shape"/>
</filter>
</defs>
</svg>
