<svg width="69" height="77" viewBox="0 0 69 77" fill="none" xmlns="http://www.w3.org/2000/svg">
<g filter="url(#filter0_d_1114_1202)">
<path d="M59.875 34.875C59.875 54.5772 38.0911 65.7775 34.8907 67.3167C34.634 67.4401 34.3661 67.4401 34.1093 67.3167C30.9089 65.7775 9.125 54.5772 9.125 34.875C9.125 20.8608 20.4858 9.5 34.5 9.5C48.5142 9.5 59.875 20.8608 59.875 34.875Z" fill="#6D56FF"/>
<path d="M34.8907 67.3167L34.0238 65.5143L34.8907 67.3167ZM34.1093 67.3167L34.9762 65.5143L34.1093 67.3167ZM57.875 34.875C57.875 43.9411 52.8659 51.1748 47.2185 56.4447C41.5831 61.7034 35.5403 64.785 34.0238 65.5143L35.7575 69.1191C37.4415 68.3092 43.8908 65.021 49.9475 59.3692C55.9921 53.7286 61.875 45.5111 61.875 34.875H57.875ZM34.9762 65.5143C33.4597 64.785 27.4169 61.7034 21.7815 56.4447C16.1341 51.1748 11.125 43.9411 11.125 34.875H7.125C7.125 45.5111 13.0079 53.7286 19.0525 59.3692C25.1092 65.021 31.5585 68.3092 33.2425 69.1191L34.9762 65.5143ZM11.125 34.875C11.125 21.9653 21.5903 11.5 34.5 11.5V7.5C19.3812 7.5 7.125 19.7562 7.125 34.875H11.125ZM34.5 11.5C47.4097 11.5 57.875 21.9653 57.875 34.875H61.875C61.875 19.7562 49.6188 7.5 34.5 7.5V11.5ZM34.0238 65.5143C34.1454 65.4558 34.309 65.4093 34.5 65.4093C34.6909 65.4093 34.8546 65.4558 34.9762 65.5143L33.2425 69.1191C34.0471 69.506 34.9529 69.506 35.7575 69.1191L34.0238 65.5143Z" fill="white"/>
</g>
<defs>
<filter id="filter0_d_1114_1202" x="0.125" y="0.5" width="68.75" height="75.9092" filterUnits="userSpaceOnUse" color-interpolation-filters="sRGB">
<feFlood flood-opacity="0" result="BackgroundImageFix"/>
<feColorMatrix in="SourceAlpha" type="matrix" values="0 0 0 0 0 0 0 0 0 0 0 0 0 0 0 0 0 0 127 0" result="hardAlpha"/>
<feOffset/>
<feGaussianBlur stdDeviation="3.5"/>
<feComposite in2="hardAlpha" operator="out"/>
<feColorMatrix type="matrix" values="0 0 0 0 0 0 0 0 0 0 0 0 0 0 0 0 0 0 0.7 0"/>
<feBlend mode="normal" in2="BackgroundImageFix" result="effect1_dropShadow_1114_1202"/>
<feBlend mode="normal" in="SourceGraphic" in2="effect1_dropShadow_1114_1202" result="shape"/>
</filter>
</defs>
</svg>
