<svg width="35" height="35" viewBox="5 5 55 55" fill="none" xmlns="http://www.w3.org/2000/svg">
<g filter="url(#filter0_d_502_2833)">
<path fill-rule="evenodd" clip-rule="evenodd" d="M31.8972 52.3119C34.5741 51.0058 49.875 42.9263 49.875 28.875C49.875 18.7268 41.6482 10.5 31.5 10.5C21.3518 10.5 13.125 18.7268 13.125 28.875C13.125 42.9263 28.4259 51.0058 31.1028 52.3119C31.3588 52.4368 31.6412 52.4368 31.8972 52.3119ZM31.5 36.75C35.8492 36.75 39.375 33.2242 39.375 28.875C39.375 24.5258 35.8492 21 31.5 21C27.1508 21 23.625 24.5258 23.625 28.875C23.625 33.2242 27.1508 36.75 31.5 36.75Z" fill="white"/>
<path d="M31.8972 52.3119L31.4587 51.4131L31.4587 51.4131L31.8972 52.3119ZM31.1028 52.3119L31.5413 51.4131L31.5413 51.4131L31.1028 52.3119ZM48.875 28.875C48.875 35.514 45.2621 40.8021 41.2023 44.6468C37.1475 48.487 32.7547 50.7808 31.4587 51.4131L32.3357 53.2106C33.7166 52.5369 38.3128 50.1379 42.5776 46.099C46.8375 42.0646 50.875 36.2873 50.875 28.875H48.875ZM31.5 11.5C41.0959 11.5 48.875 19.2791 48.875 28.875H50.875C50.875 18.1745 42.2005 9.5 31.5 9.5V11.5ZM14.125 28.875C14.125 19.2791 21.9041 11.5 31.5 11.5V9.5C20.7995 9.5 12.125 18.1745 12.125 28.875H14.125ZM31.5413 51.4131C30.2453 50.7808 25.8525 48.487 21.7977 44.6468C17.7379 40.8021 14.125 35.514 14.125 28.875H12.125C12.125 36.2873 16.1625 42.0646 20.4224 46.099C24.6872 50.1379 29.2834 52.5369 30.6643 53.2106L31.5413 51.4131ZM31.4587 51.4131C31.4627 51.4112 31.4776 51.4055 31.5 51.4055C31.5224 51.4055 31.5373 51.4112 31.5413 51.4131L30.6643 53.2106C31.197 53.4705 31.803 53.4705 32.3357 53.2106L31.4587 51.4131ZM38.375 28.875C38.375 32.672 35.297 35.75 31.5 35.75V37.75C36.4015 37.75 40.375 33.7765 40.375 28.875H38.375ZM31.5 22C35.297 22 38.375 25.078 38.375 28.875H40.375C40.375 23.9735 36.4015 20 31.5 20V22ZM24.625 28.875C24.625 25.078 27.703 22 31.5 22V20C26.5985 20 22.625 23.9735 22.625 28.875H24.625ZM31.5 35.75C27.703 35.75 24.625 32.672 24.625 28.875H22.625C22.625 33.7765 26.5985 37.75 31.5 37.75V35.75Z" fill="#9180FF"/>
</g>
<defs>
<filter id="filter0_d_502_2833" x="8.125" y="5.5" width="46.75" height="51.9055" filterUnits="userSpaceOnUse" color-interpolation-filters="sRGB">
<feFlood flood-opacity="0" result="BackgroundImageFix"/>
<feColorMatrix in="SourceAlpha" type="matrix" values="0 0 0 0 0 0 0 0 0 0 0 0 0 0 0 0 0 0 127 0" result="hardAlpha"/>
<feOffset/>
<feGaussianBlur stdDeviation="2"/>
<feComposite in2="hardAlpha" operator="out"/>
<feColorMatrix type="matrix" values="0 0 0 0 0 0 0 0 0 0 0 0 0 0 0 0 0 0 0.25 0"/>
<feBlend mode="normal" in2="BackgroundImageFix" result="effect1_dropShadow_502_2833"/>
<feBlend mode="normal" in="SourceGraphic" in2="effect1_dropShadow_502_2833" result="shape"/>
</filter>
</defs>
</svg>
