<svg width="20" height="18" viewBox="0 0 20 18" fill="none" xmlns="http://www.w3.org/2000/svg">
<path d="M11.9253 3.28666C12.5219 2.94127 12.8202 2.76857 13.1391 2.799C13.4579 2.82942 13.7182 3.05543 14.2387 3.50744L15.8519 4.90832C16.5254 5.49321 16.8622 5.78565 16.902 6.1803C16.9418 6.57495 16.6702 6.92874 16.127 7.63632L15.229 8.80594C15.044 9.047 14.9514 9.16753 14.8644 9.29018C14.3179 10.0603 13.9121 10.921 13.6658 11.8326C13.6265 11.9778 13.5924 12.1259 13.5242 12.422L13.4118 12.9099C13.288 13.4478 12.6751 13.708 12.2021 13.4236L11.8285 13.199C9.17368 11.603 6.82545 9.54541 4.89447 7.12332V7.12332C4.54259 6.68194 4.79208 6.02486 5.34824 5.92827L6.34204 5.75567C6.81885 5.67286 7.05726 5.63145 7.29115 5.57619C7.8957 5.43334 8.48154 5.22057 9.03685 4.94218C9.25171 4.83447 9.46112 4.71324 9.87994 4.47077L11.9253 3.28666Z" stroke="white" stroke-width="2"/>
<path d="M4.11276 14.0001L7.81421 10.7858" stroke="white" stroke-width="2" stroke-linecap="round"/>
</svg>
