<svg viewBox="0 0 24 24" fill="currentColor" xmlns="http://www.w3.org/2000/svg">
<path d="M0.816 11.752C0.816 9.16 1.416 6.4 3.336 5.32V3.304H0.912V1.384H16.368V3.304H14.016V5.344C15.912 6.448 16.488 9.184 16.488 11.752H12.432C12.432 9.52 12.24 6.688 11.568 6.688C10.92 6.688 10.68 9.52 10.68 11.752H6.624C6.624 9.52 6.384 6.688 5.736 6.688C5.064 6.688 4.872 9.52 4.872 11.752H0.816ZM5.736 18.64V13.768H21.888V22.816H10.848C8.16 22.816 5.736 22.144 5.736 18.64ZM7.488 5.44C7.968 5.728 8.352 6.112 8.64 6.568C8.976 6.088 9.36 5.704 9.864 5.416V3.304H7.488V5.44ZM10.848 18.88C10.848 20.056 11.16 20.896 12.624 20.896H16.776V15.688H10.848V18.88ZM17.232 12.616V2.224C17.232 1.072 18.432 0.447999 19.536 0.447999C20.544 0.447999 21.888 1.048 21.888 2.224V12.616H17.232Z"/>
</svg>
