<svg width="130" height="130" viewBox="0 0 130 130" fill="none" xmlns="http://www.w3.org/2000/svg">
<g clip-path="url(#clip0_436_2034)">
<mask id="mask0_436_2034" style="mask-type:luminance" maskUnits="userSpaceOnUse" x="0" y="0" width="130" height="130">
<path d="M130 0H0V130H130V0Z" fill="white"/>
</mask>
<g mask="url(#mask0_436_2034)">
<path d="M135 85C135 113.167 111.047 136 81.5 136C51.9528 136 28 113.167 28 85C28 56.8335 51.9528 34 81.5 34C111.047 34 135 56.8335 135 85Z" fill="#E7FFE4"/>
<path d="M22.5 69C40.4493 69 55 55.1208 55 38C55 20.8792 40.4493 7 22.5 7C4.55075 7 -10 20.8792 -10 38C-10 55.1208 4.55075 69 22.5 69Z" fill="#6D56FF"/>
<path d="M11.0908 49.1445C11.9795 50.0332 13.0527 50.4775 14.3105 50.4775C15.5684 50.4775 16.6484 50.0332 17.5508 49.1445C18.4395 48.2559 18.8838 47.1826 18.8838 45.9248C18.8838 44.667 18.4395 43.5869 17.5508 42.6846C16.6484 41.7959 15.5684 41.3516 14.3105 41.3516C13.0527 41.3516 11.9795 41.7959 11.0908 42.6846C10.2021 43.5869 9.75781 44.667 9.75781 45.9248C9.75781 47.1826 10.2021 48.2559 11.0908 49.1445ZM9.18359 40.7773C10.6055 39.3555 12.3145 38.6445 14.3105 38.6445C16.3203 38.6445 18.0361 39.3555 19.458 40.7773C20.8799 42.1992 21.5908 43.915 21.5908 45.9248C21.5908 47.9209 20.8799 49.6299 19.458 51.0518C18.0361 52.4736 16.3203 53.1846 14.3105 53.1846C12.6289 53.1846 11.1113 52.6309 9.75781 51.5234V59.6035H7.05078V45.9248C7.05078 43.915 7.76172 42.1992 9.18359 40.7773ZM24.4578 53V38.46H27.1648V53H24.4578ZM24.4578 36.1221V33.4971H27.1648V36.1221H24.4578ZM33.2105 53H30.5035V45.7402C30.5035 43.7305 31.2145 42.0146 32.6363 40.5928C34.0582 39.1709 35.7672 38.46 37.7633 38.46C39.773 38.46 41.4889 39.1709 42.9107 40.5928C44.3326 42.0146 45.0436 43.7305 45.0436 45.7402V53H42.3365V45.7402C42.3365 44.4824 41.8854 43.4023 40.983 42.5C40.0943 41.6113 39.0211 41.167 37.7633 41.167C36.5055 41.167 35.4322 41.6113 34.5436 42.5C33.6549 43.4023 33.2105 44.4824 33.2105 45.7402V53Z" fill="white"/>
<path d="M11.3779 84.293H15.7666V87H11.3779C10.1885 87 9.16992 86.583 8.32227 85.749C7.48828 84.9014 7.07129 83.8828 7.07129 82.6934L7.05078 67.4971H9.75781V72.46H14.5566V75.167H9.75781V82.6934C9.75781 83.1309 9.91504 83.5068 10.2295 83.8213C10.5439 84.1357 10.9268 84.293 11.3779 84.293ZM25.5652 75.167C24.3074 75.167 23.2342 75.6113 22.3455 76.5C21.4568 77.4023 21.0125 78.4824 21.0125 79.7402C21.0125 80.998 21.4568 82.0713 22.3455 82.96C23.2342 83.8486 24.3074 84.293 25.5652 84.293C26.823 84.293 27.8963 83.8486 28.785 82.96C29.6873 82.0713 30.1385 80.998 30.1385 79.7402C30.1385 78.4824 29.6873 77.4023 28.785 76.5C27.8963 75.6113 26.823 75.167 25.5652 75.167ZM25.5652 87C23.5691 87 21.8602 86.2891 20.4383 84.8672C19.0164 83.4453 18.3055 81.7363 18.3055 79.7402C18.3055 77.7305 19.0164 76.0146 20.4383 74.5928C21.8602 73.1709 23.5691 72.46 25.5652 72.46C27.575 72.46 29.2908 73.1709 30.7127 74.5928C32.1346 76.0146 32.8455 77.7305 32.8455 79.7402C32.8455 81.7363 32.1346 83.4453 30.7127 84.8672C29.2908 86.2891 27.575 87 25.5652 87ZM39.5475 82.9805C40.4361 83.8691 41.5094 84.3135 42.7672 84.3135C44.0387 84.3135 45.1187 83.8691 46.0074 82.9805C46.8961 82.0918 47.3404 81.0186 47.3404 79.7607C47.3404 78.5029 46.8961 77.4229 46.0074 76.5205C45.1187 75.6318 44.0387 75.1875 42.7672 75.1875C41.5094 75.1875 40.4361 75.6318 39.5475 76.5205C38.6588 77.4229 38.2145 78.5029 38.2145 79.7607C38.2145 81.0186 38.6588 82.0918 39.5475 82.9805ZM50.0475 79.7607V87.0205C50.0475 89.0303 49.3365 90.7393 47.9146 92.1475C46.4928 93.5693 44.777 94.2803 42.7672 94.2803V91.5732C44.025 91.5732 45.1051 91.1289 46.0074 90.2402C46.8961 89.3516 47.3404 88.2783 47.3404 87.0205V85.3594C45.9869 86.4668 44.4625 87.0205 42.7672 87.0205C40.7711 87.0205 39.0621 86.3096 37.6402 84.8877C36.2184 83.4658 35.5074 81.7568 35.5074 79.7607C35.5074 77.751 36.2184 76.0352 37.6402 74.6133C39.0621 73.1914 40.7711 72.4805 42.7672 72.4805C44.777 72.4805 46.4928 73.1914 47.9146 74.6133C49.3365 76.0352 50.0475 77.751 50.0475 79.7607ZM63.1068 76.0693C62.3002 75.4678 61.3979 75.167 60.3998 75.167C59.3881 75.167 58.4789 75.4678 57.6723 76.0693C56.893 76.6709 56.3529 77.4434 56.0521 78.3867H64.727C64.4262 77.4434 63.8861 76.6709 63.1068 76.0693ZM67.5365 81.0732L56.0521 81.0938C56.3529 82.0234 56.893 82.7891 57.6723 83.3906C58.4789 83.9922 59.3881 84.293 60.3998 84.293C61.2064 84.293 62.0131 84.1084 62.8197 83.7393C63.6674 83.3564 64.2895 82.8711 64.6859 82.2832L66.9213 83.8008C66.2787 84.7578 65.3422 85.5303 64.1117 86.1182C62.8949 86.7061 61.6576 87 60.3998 87C58.39 87 56.6742 86.2891 55.2523 84.8672C53.8305 83.4453 53.1195 81.7363 53.1195 79.7402C53.1195 77.7305 53.8305 76.0146 55.2523 74.5928C56.6742 73.1709 58.39 72.46 60.3998 72.46C62.3959 72.46 64.1049 73.1709 65.5268 74.5928C66.9486 76.0146 67.6596 77.7305 67.6596 79.7402C67.6596 80.1914 67.6186 80.6357 67.5365 81.0732ZM74.8537 84.293H79.2424V87H74.8537C73.6643 87 72.6457 86.583 71.798 85.749C70.9641 84.9014 70.5471 83.8828 70.5471 82.6934L70.5266 67.4971H73.2336V72.46H78.0324V75.167H73.2336V82.6934C73.2336 83.1309 73.3908 83.5068 73.7053 83.8213C74.0197 84.1357 74.4025 84.293 74.8537 84.293ZM84.4883 87H81.7812V66.0615H84.4883V74.0801C85.8281 73 87.291 72.46 88.877 72.46C90.873 72.46 92.5615 73.1709 93.9424 74.5928C95.2959 76.001 95.9727 77.7168 95.9727 79.7402V87H93.2656V79.7402C93.2656 78.4688 92.8486 77.3887 92.0146 76.5C91.167 75.6113 90.1211 75.167 88.877 75.167C87.6328 75.167 86.5869 75.6113 85.7393 76.5C84.9053 77.3887 84.4883 78.4688 84.4883 79.7402V87ZM109.176 76.0693C108.369 75.4678 107.467 75.167 106.469 75.167C105.457 75.167 104.548 75.4678 103.741 76.0693C102.962 76.6709 102.422 77.4434 102.121 78.3867H110.796C110.495 77.4434 109.955 76.6709 109.176 76.0693ZM113.605 81.0732L102.121 81.0938C102.422 82.0234 102.962 82.7891 103.741 83.3906C104.548 83.9922 105.457 84.293 106.469 84.293C107.275 84.293 108.082 84.1084 108.888 83.7393C109.736 83.3564 110.358 82.8711 110.755 82.2832L112.99 83.8008C112.347 84.7578 111.411 85.5303 110.18 86.1182C108.964 86.7061 107.726 87 106.469 87C104.459 87 102.743 86.2891 101.321 84.8672C99.8992 83.4453 99.1883 81.7363 99.1883 79.7402C99.1883 77.7305 99.8992 76.0146 101.321 74.5928C102.743 73.1709 104.459 72.46 106.469 72.46C108.465 72.46 110.174 73.1709 111.596 74.5928C113.017 76.0146 113.728 77.7305 113.728 79.7402C113.728 80.1914 113.687 80.6357 113.605 81.0732ZM123.855 72.46V75.167C122.597 75.167 121.524 75.6113 120.635 76.5C119.747 77.4023 119.302 78.4824 119.302 79.7402V87H116.595V79.7402C116.595 77.7305 117.306 76.0146 118.728 74.5928C120.15 73.1709 121.859 72.46 123.855 72.46Z" fill="#6D56FF"/>
</g>
</g>
<defs>
<clipPath id="clip0_436_2034">
<rect width="130" height="130" fill="white"/>
</clipPath>
</defs>
</svg>
